<?xml version="1.0" encoding="UTF-8" standalone="no"?>
<svg
   viewBox="0 0 97 88.53"
   version="1.1"
   id="svg29"
   sodipodi:docname="icon.svg"
   width="97"
   height="88.529999"
   inkscape:version="1.3.2 (091e20e, 2023-11-25)"
   xmlns:inkscape="http://www.inkscape.org/namespaces/inkscape"
   xmlns:sodipodi="http://sodipodi.sourceforge.net/DTD/sodipodi-0.dtd"
   xmlns:xlink="http://www.w3.org/1999/xlink"
   xmlns="http://www.w3.org/2000/svg"
   xmlns:svg="http://www.w3.org/2000/svg">
  <sodipodi:namedview
     id="namedview29"
     pagecolor="#ffffff"
     bordercolor="#000000"
     borderopacity="0.25"
     inkscape:showpageshadow="2"
     inkscape:pageopacity="0.0"
     inkscape:pagecheckerboard="0"
     inkscape:deskcolor="#d1d1d1"
     inkscape:zoom="1.1220082"
     inkscape:cx="200.08766"
     inkscape:cy="75.757021"
     inkscape:window-width="1680"
     inkscape:window-height="997"
     inkscape:window-x="0"
     inkscape:window-y="25"
     inkscape:window-maximized="1"
     inkscape:current-layer="Layer_2" />
  <defs
     id="defs16">
    <style
       id="style1">.cls-1{fill:#39b44a;}.cls-2{opacity:0.9;fill:url(#linear-gradient);}.cls-3{fill:url(#linear-gradient-2);}.cls-4{fill:url(#linear-gradient-3);}.cls-5{fill:url(#linear-gradient-4);}.cls-6{fill:url(#linear-gradient-5);}.cls-7{fill:url(#linear-gradient-6);}.cls-8{fill:url(#linear-gradient-7);}.cls-9{fill:url(#linear-gradient-8);}.cls-10{fill:url(#linear-gradient-9);}.cls-11{fill:url(#linear-gradient-10);}.cls-12{fill:url(#linear-gradient-11);}.cls-13{fill:url(#linear-gradient-12);}.cls-14{fill:url(#linear-gradient-13);}.cls-15{fill:url(#linear-gradient-14);}.cls-16{fill:url(#linear-gradient-15);}.cls-17{fill:url(#linear-gradient-16);}</style>
    <linearGradient
       id="linear-gradient"
       x1="173.66"
       y1="17.959999"
       x2="158.67999"
       y2="67.330002"
       gradientUnits="userSpaceOnUse">
      <stop
         offset="0"
         stop-opacity="0.2"
         id="stop1" />
      <stop
         offset="1"
         stop-opacity="0"
         id="stop2" />
    </linearGradient>
    <linearGradient
       id="linear-gradient-2"
       x1="58.07"
       y1="68.510002"
       x2="94.150002"
       y2="25.51"
       gradientUnits="userSpaceOnUse">
      <stop
         offset="0"
         stop-opacity="0.2"
         id="stop3" />
      <stop
         offset="0.7"
         stop-opacity="0"
         id="stop4" />
    </linearGradient>
    <linearGradient
       id="linear-gradient-3"
       x1="33.580002"
       y1="56.68"
       x2="21.959999"
       y2="56.68"
       xlink:href="#linear-gradient-2" />
    <linearGradient
       id="linear-gradient-4"
       x1="228.45"
       y1="54.150002"
       x2="254.12"
       y2="54.150002"
       gradientUnits="userSpaceOnUse">
      <stop
         offset="0"
         stop-opacity="0.3"
         id="stop5" />
      <stop
         offset="1"
         stop-opacity="0"
         id="stop6" />
    </linearGradient>
    <linearGradient
       id="linear-gradient-5"
       x1="279.78"
       y1="51.869999"
       x2="319.53"
       y2="51.869999"
       xlink:href="#linear-gradient" />
    <linearGradient
       id="linear-gradient-6"
       x1="326.51001"
       y1="87.209999"
       x2="376.13"
       y2="87.209999"
       xlink:href="#linear-gradient" />
    <linearGradient
       id="linear-gradient-7"
       x1="406.13"
       y1="81.779999"
       x2="451.95001"
       y2="81.779999"
       xlink:href="#linear-gradient" />
    <linearGradient
       id="linear-gradient-8"
       x1="396"
       y1="64.970001"
       x2="396"
       y2="95.760002"
       xlink:href="#linear-gradient" />
    <linearGradient
       id="linear-gradient-9"
       x1="396"
       y1="48.389999"
       x2="396"
       y2="31.09"
       xlink:href="#linear-gradient" />
    <linearGradient
       id="linear-gradient-10"
       x1="468.60001"
       y1="81.940002"
       x2="468.60001"
       y2="60.619999"
       gradientUnits="userSpaceOnUse">
      <stop
         offset="0"
         stop-opacity="0.3"
         id="stop7" />
      <stop
         offset="0.84"
         stop-opacity="0"
         id="stop8" />
    </linearGradient>
    <linearGradient
       id="linear-gradient-11"
       x1="578.84998"
       y1="97.739998"
       x2="578.84998"
       y2="9.9499998"
       gradientUnits="userSpaceOnUse">
      <stop
         offset="0"
         stop-opacity="0.3"
         id="stop9" />
      <stop
         offset="0.39"
         stop-opacity="0"
         id="stop10" />
    </linearGradient>
    <linearGradient
       id="linear-gradient-12"
       x1="617.65002"
       y1="79.529999"
       x2="625.21997"
       y2="76.360001"
       xlink:href="#linear-gradient" />
    <linearGradient
       id="linear-gradient-13"
       x1="723.31"
       y1="34.779999"
       x2="682.34003"
       y2="34.779999"
       gradientUnits="userSpaceOnUse">
      <stop
         offset="0"
         stop-opacity="0.2"
         id="stop11" />
      <stop
         offset="0.53"
         stop-opacity="0"
         id="stop12" />
    </linearGradient>
    <linearGradient
       id="linear-gradient-14"
       x1="694.15002"
       y1="81.68"
       x2="673.09003"
       y2="85.389999"
       gradientUnits="userSpaceOnUse">
      <stop
         offset="0"
         stop-opacity="0.3"
         id="stop13" />
      <stop
         offset="0.53"
         stop-opacity="0"
         id="stop14" />
    </linearGradient>
    <linearGradient
       id="linear-gradient-15"
       x1="729.53998"
       y1="1109.65"
       x2="776.42999"
       y2="1109.65"
       gradientTransform="rotate(180,448.935,568.02)"
       gradientUnits="userSpaceOnUse">
      <stop
         offset="0"
         stop-color="#ece50a"
         id="stop15" />
      <stop
         offset="1"
         stop-color="#928316"
         id="stop16" />
    </linearGradient>
    <linearGradient
       id="linear-gradient-16"
       x1="-2421.27"
       y1="1543.0601"
       x2="-2374.3899"
       y2="1543.0601"
       gradientTransform="translate(2543.63,-1463.9)"
       xlink:href="#linear-gradient-15" />
    <clipPath
       clipPathUnits="userSpaceOnUse"
       id="clipPath33">
      <rect
         style="opacity:0.64;fill:#000000"
         id="rect33"
         width="96.255981"
         height="90.017159"
         x="-3.1750655e-09"
         y="7.1300726" />
    </clipPath>
  </defs>
  <g
     id="Layer_2"
     data-name="Layer 2">
    <g
       id="Tekst"
       clip-path="url(#clipPath33)"
       transform="translate(1.310816e-8,-7.1300726)">
      <path
         class="cls-1"
         d="m 516,56.81 a 22.77,22.77 0 0 0 -12.11,-5.92 16.18,16.18 0 0 0 7.38,-6.45 20.71,20.71 0 0 0 2.89,-11.19 c 0,-3.82 -0.66,-11.18 -6.32,-16.58 C 501,10.22 490.19,10 485.45,10 H 458.6 v 87.74 h 33 c 5.4,0 15.93,-0.53 23.17,-7.5 3.42,-3.43 6.84,-8.95 6.84,-17.77 C 521.64,64.71 518.88,59.7 516,56.81 Z M 478.61,25.75 h 3.16 c 3.68,0 7.63,0 10.52,2.23 a 9,9 0 0 1 3.42,7.37 9.34,9.34 0 0 1 -3.55,7.77 c -2.89,2.1 -7.5,2.5 -10.26,2.5 h -3.29 z m 19.87,52.64 c -3.69,3.42 -9.87,3.55 -15,3.55 h -4.86 V 60.62 h 5.52 c 4.08,0 10.93,0 14.48,3.29 a 9.45,9.45 0 0 1 2.75,7.09 9.7,9.7 0 0 1 -2.89,7.39 z"
         id="path16" />
      <path
         class="cls-1"
         d="m 729.73,52.72 c -3.42,-3.28 -8.16,-5.26 -12,-6.7 l -6.58,-2.5 c -5.92,-2.24 -8.95,-3 -11,-5 a 6.17,6.17 0 0 1 -2,-4.88 7.8,7.8 0 0 1 2.24,-5.52 c 2.37,-2.64 5.79,-3 8.55,-3 2.5,0 8.16,0.39 14.75,6.31 L 732.77,16.7 A 42.41,42.41 0 0 0 706.7,8 c -8.16,0 -15.53,1.71 -21.72,8 -5.26,5.39 -7.63,12 -7.63,19.74 0,4.21 0.66,10.4 5.26,15.27 3.42,3.68 8.16,5.52 12.24,7 l 7.24,2.5 c 2.5,0.92 7.9,2.9 10.27,4.87 a 7.76,7.76 0 0 1 3,6.32 9.09,9.09 0 0 1 -3.15,7.11 14,14 0 0 1 -9.22,3 20.41,20.41 0 0 1 -11,-3.15 53.39,53.39 0 0 1 -8.16,-6.72 l -10.56,14.48 a 55.82,55.82 0 0 0 12.9,9.58 c 5.52,2.76 11.05,3.68 17.37,3.68 5.79,0 17.11,-0.79 24.87,-8.95 4.59,-4.73 7.77,-12.6 7.77,-21.73 0,-5.09 -1.32,-11.4 -6.45,-16.28 z"
         id="path17" />
      <path
         class="cls-1"
         d="M 638.94,10 H 620.38 L 595.62,71.34 571.42,10 h -23.64 l 2.33,6.82 -32.65,81 h 21.06 l 6.71,-16.58 h 33.34 l 6.43,16.5 h 21 l 6.71,-16.58 h 33.16 l 6.58,16.58 h 21.06 z m -87.79,55.62 10.92,-29.48 10.81,29.48 z m 67.52,0 10.92,-29.48 10.79,29.48 z"
         id="path18" />
      <polygon
         class="cls-1"
         points="346.78,48.39 346.78,25.09 376.13,25.09 376.13,7.98 326.51,7.98 326.51,95.76 376.13,95.76 376.13,78.66 346.78,78.66 346.78,64.97 366.83,64.97 366.83,48.39 "
         id="polygon18" />
      <path
         class="cls-1"
         d="M 145.47,6 C 128,6 117.05,13 111.12,18.9 103.23,26.8 97.57,39.57 97.57,52.2 a 44.84,44.84 0 0 0 13.68,32.64 c 6.58,6.32 17.77,12.9 34.22,12.9 14.74,0 25.8,-5 34,-12.9 A 45.41,45.41 0 0 0 193.16,51.94 45.69,45.69 0 0 0 179.47,18.77 C 170.61,10.22 159.16,6 145.47,6 Z m 19.22,65.54 c -4.21,4.21 -10.53,7.5 -19.48,7.5 -6.84,0 -13.16,-1.84 -18.82,-7.24 -5.4,-5.27 -8,-11.71 -8,-19.74 0,-9.74 4,-16.19 7.77,-19.87 a 26.91,26.91 0 0 1 19.21,-7.5 28.13,28.13 0 0 1 19.35,7.5 c 3.95,3.94 7.63,10.65 7.63,19.74 -0.03,10.14 -4.24,16.33 -7.66,19.62 z"
         id="path19" />
      <path
         class="cls-1"
         d="M 87.54,15.22 C 80.56,9 72.14,8 64.51,8 H 33.58 l -7.85,16.7 7.85,-0.13 V 48.39 H 22.77 A 13.43,13.43 0 0 0 12.18,43.22 H 8.63 V 49 H 0 v 3.31 H 8.63 V 61 H 0 v 3.31 h 8.63 v 5.82 h 3.55 A 13.43,13.43 0 0 0 22.77,65 H 33.58 V 95.76 H 53.84 V 65 h 12.38 c 6.18,0 15.39,-0.66 22.37,-7.77 3.29,-3.42 7.5,-9.61 7.5,-20.66 C 96.09,30.48 95,21.8 87.54,15.22 Z M 72,45.09 c -3.29,3.16 -8.16,3.3 -10.93,3.3 H 53.84 V 24.57 h 6.85 c 4,0 8.29,0.39 11.32,3.28 A 11.61,11.61 0 0 1 75.3,36.4 12.23,12.23 0 0 1 72,45.09 Z"
         id="path20" />
      <path
         class="cls-1"
         d="m 440.88,57.2 c 3.29,-3.42 7.5,-9.61 7.5,-20.66 0,-6.06 -1.06,-14.74 -8.56,-21.32 -7,-6.19 -15.4,-7.24 -23,-7.24 h -30.96 v 40.41 h -9.14 V 65 h 9.14 v 30.76 h 20.27 V 65 65 l 21.08,30.79 2.79,3.74 22,-3.77 -23.86,-31.71 A 25,25 0 0 0 440.88,57.2 Z M 424.29,45.09 c -3.29,3.16 -8.16,3.3 -10.92,3.3 h -7.24 V 24.57 H 413 c 3.95,0 8.3,0.39 11.32,3.28 a 11.57,11.57 0 0 1 3.29,8.55 12.19,12.19 0 0 1 -3.32,8.69 z"
         id="path21" />
      <polygon
         class="cls-1"
         points="218.58,95.76 235.69,95.76 254.12,42.46 272.54,95.76 289.65,95.76 319.52,7.98 298.47,7.98 279.78,66.15 261.09,7.98 245.68,12.54 228.45,66.15 209.76,7.98 188.71,7.98 "
         id="polygon21" />
    </g>
  </g>
</svg>
